<?xml version="1.0" encoding="UTF-8"?>
<svg version="1.1" xmlns="http://www.w3.org/2000/svg" width="32" height="32">
<path d="M0 0 C5.94 0 11.88 0 18 0 C25.04689403 12.11571255 25.04689403 12.11571255 24.8359375 16.09375 C24.56007813 17.0528125 24.28421875 18.011875 24 19 C23.74347656 19.91523438 23.48695312 20.83046875 23.22265625 21.7734375 C21.80567037 24.95092098 20.68986349 26.75277227 18 29 C12.28433208 30.89367584 5.69607295 30.99667601 0 29 C-3.82106564 25.54592937 -5.75700292 21.98411513 -7 17 C-6.64439942 10.42985599 -3.20853889 5.59787636 0 0 Z M4.37109375 10.53125 C3.73300781 11.1809375 3.09492188 11.830625 2.4375 12.5 C1.79683594 13.1496875 1.15617188 13.799375 0.49609375 14.46875 C0.00238281 14.9740625 -0.49132812 15.479375 -1 16 C-0.67 16.66 -0.34 17.32 0 18 C1.65 16.35 3.3 14.7 5 13 C7.88437779 14.29299694 9.87219421 15.65941363 12 18 C12.66 17.67 13.32 17.34 14 17 C12.85760183 15.66372225 11.71098945 14.33104612 10.5625 13 C9.92441406 12.2575 9.28632813 11.515 8.62890625 10.75 C8.09136719 10.1725 7.55382812 9.595 7 9 C5.74882927 8.88584524 5.74882927 8.88584524 4.37109375 10.53125 Z M12 10 C11.6689011 13.2230924 11.6689011 13.2230924 14.375 15.6875 C16.66706542 18.22034351 16.66706542 18.22034351 19 18 C17.50902342 14.2047869 15.24299151 12.38957269 12 10 Z " fill="#0C587D" transform="translate(7,3)"/>
</svg>
