<?xml version="1.0" encoding="UTF-8"?>
<svg version="1.1" xmlns="http://www.w3.org/2000/svg" width="128" height="128">
<path d="M0 0 C12.1270762 9.19729327 20.55591634 19.44493864 25.5546875 33.9375 C25.91949219 34.95328125 26.28429687 35.9690625 26.66015625 37.015625 C30.54598408 51.10463641 28.86951928 68.85437777 22.5546875 81.9375 C22.131875 82.82824219 21.7090625 83.71898438 21.2734375 84.63671875 C13.09096698 99.78856097 -0.40382834 110.27953927 -16.4453125 115.9375 C-17.46238281 116.30359375 -18.47945313 116.6696875 -19.52734375 117.046875 C-36.33146717 121.66990363 -54.89634887 118.19463426 -69.8828125 110.125 C-71.07850476 109.40934625 -72.26993321 108.68604779 -73.4453125 107.9375 C-73.4453125 107.2775 -73.4453125 106.6175 -73.4453125 105.9375 C-74.02667969 105.669375 -74.60804687 105.40125 -75.20703125 105.125 C-88.12306975 98.27251186 -94.80624415 83.91078287 -99.58984375 70.80078125 C-102.50621771 57.63048972 -102.17958789 41.27865789 -96.4453125 28.9375 C-96.00960937 27.99261719 -95.57390625 27.04773437 -95.125 26.07421875 C-86.68350904 9.39881448 -73.71080662 -1.43886198 -56.4453125 -8.0625 C-37.67138769 -13.96400801 -16.14506288 -11.11470204 0 0 Z " fill="#950A09" transform="translate(100.4453125,10.0625)"/>
<path d="M0 0 C6.49448188 1.14608504 10.78272946 2.03290023 14.83789062 7.6015625 C15.24201172 8.18679687 15.64613281 8.77203125 16.0625 9.375 C19.03728978 13.58576089 21.7612257 16.93236655 26 20 C25.835 20.7425 25.67 21.485 25.5 22.25 C24.88074304 25.19006578 24.88074304 25.19006578 25 29 C28.16884437 32.98136857 30.47379641 35.06142551 35.375 36.4375 C40.84331467 38.03242511 43.99557297 41.06669956 48 45 C48.99163453 45.89918545 49.98525417 46.7961848 50.98046875 47.69140625 C52.00917055 48.64697759 53.03652054 49.60400632 54.0625 50.5625 C55.02285156 51.45066406 55.98320313 52.33882812 56.97265625 53.25390625 C59 56 59 56 59 59.12890625 C57.45352237 63.5689885 55.01315175 65.67003423 51 68 C46.25901229 69.34327985 46.25901229 69.34327985 43 68 C39.95663183 65.44459804 37.2770506 62.73669528 34.61328125 59.796875 C32.10729719 56.97774845 32.10729719 56.97774845 29.3046875 54.85546875 C25.49519366 51.78850337 23.67238167 47.92749411 22.0625 43.3125 C20.66883788 40.27923538 18.68612371 38.90856158 16 37 C15.73316406 37.57105469 15.46632813 38.14210937 15.19140625 38.73046875 C13.94589811 41.10305966 12.51788817 43.14927363 10.9375 45.3125 C7.91322819 49.59320207 5.09294743 53.95896659 2.375 58.4375 C2.015271 59.02120361 1.65554199 59.60490723 1.28491211 60.20629883 C-1.99980989 65.68033769 -4.30399979 71.06879954 -7 77 C11.81 77 30.62 77 50 77 C43.96945898 89.06108203 30.59370648 95.51763942 18.359375 99.66015625 C12.36158585 101.38650942 6.5225154 101.53512091 0.3125 101.5 C-1.4034436 101.49359497 -1.4034436 101.49359497 -3.15405273 101.48706055 C-15.90578126 101.23150222 -26.18696324 97.88635132 -37 91 C-37 90.34 -37 89.68 -37 89 C-37.8353125 88.62875 -37.8353125 88.62875 -38.6875 88.25 C-41.42410913 86.77075182 -43.67650869 85.06532561 -46 83 C-46 82.34 -46 81.68 -46 81 C-43.36 80.67 -40.72 80.34 -38 80 C-44.35995202 72.0225787 -51.04086356 64.45343024 -58 57 C-53.24558274 57 -50.49193433 59.96549618 -47 63 C-44.52896316 65.5589189 -42.2603296 68.25493771 -40 71 C-38.85650518 72.33533943 -37.71082083 73.6688084 -36.5625 75 C-35.716875 75.99 -34.87125 76.98 -34 78 C-34.33 76.68 -34.66 75.36 -35 74 C-35.66 74 -36.32 74 -37 74 C-38.65625 72.35546875 -38.65625 72.35546875 -40.5 70.1875 C-41.1084375 69.47980469 -41.716875 68.77210937 -42.34375 68.04296875 C-44 66 -44 66 -46 63 C-41.0276578 64.49170266 -36.58154261 66.60457417 -32 69 C-32.66708984 68.00419922 -32.66708984 68.00419922 -33.34765625 66.98828125 C-33.91355469 66.10527344 -34.47945312 65.22226563 -35.0625 64.3125 C-35.63097656 63.44238281 -36.19945313 62.57226562 -36.78515625 61.67578125 C-38.64168714 57.58663764 -37.36519913 55.0955974 -36 51 C-34.515 51.495 -34.515 51.495 -33 52 C-33 53.299375 -33 54.59875 -33 55.9375 C-32.43215269 61.39227564 -29.76203304 64.15432447 -26.0078125 67.95703125 C-24 70 -24 70 -22.4296875 72.26171875 C-21.95789062 72.83535156 -21.48609375 73.40898438 -21 74 C-20.01 74 -19.02 74 -18 74 C-15.69 68.39 -13.38 62.78 -11 57 C-9.88633942 61.45464232 -10.29137419 62.51245674 -11.9375 66.625 C-13.4760323 70.21381238 -13.4760323 70.21381238 -14 74 C-13.69932617 73.37359619 -13.39865234 72.74719238 -13.08886719 72.10180664 C-12.17305729 70.19386935 -11.25710907 68.28599844 -10.34106445 66.37817383 C-9.27089857 64.14801841 -8.20174258 61.91737813 -7.13354492 59.6862793 C-4.30102234 53.77382873 -1.45256625 47.87085095 1.43359375 41.984375 C1.97918945 40.86538818 2.52478516 39.74640137 3.08691406 38.59350586 C4.1360736 36.44285683 5.19120691 34.29510946 6.25292969 32.15063477 C6.73020508 31.16893311 7.20748047 30.18723145 7.69921875 29.17578125 C8.12033936 28.31895752 8.54145996 27.46213379 8.9753418 26.5793457 C10.1251379 23.6849936 10.71088015 21.10028703 11 18 C9.68326167 15.16341413 9.68326167 15.16341413 8 13 C6.68 13.33 5.36 13.66 4 14 C4.268125 13.175 4.53625 12.35 4.8125 11.5 C5.07724836 6.55803053 2.84710319 3.88151784 0 0 Z " fill="#EEDCDE" transform="translate(64,27)"/>
<path d="M0 0 C3.57766646 1.19255549 4.2041827 2.31166431 6.375 5.3125 C10.09961996 10.27287713 10.09961996 10.27287713 15 14 C17.68805807 14.09616096 17.68805807 14.09616096 20 13 C20.66 12.01 21.32 11.02 22 10 C24.7443949 11.04097738 25.9787139 11.97284187 27.8125 14.3125 C29.18729237 17.4238722 29.00295901 18.80876679 28 22 C29.32 22 30.64 22 32 22 C34.2421169 24.62868877 35.05521176 26.15913035 34.8269043 29.63623047 C33.75807658 33.98412191 31.95063775 37.7018449 29.95703125 41.6953125 C29.34791145 42.93835648 29.34791145 42.93835648 28.72648621 44.20651245 C27.4290973 46.84965964 26.12096441 49.48732106 24.8125 52.125 C23.95176799 53.87465288 23.09173519 55.62464991 22.23242188 57.375 C17.86027301 66.26920357 13.44836968 75.14366975 9 84 C7.74044769 80.22134307 8.51912811 78.96588214 9.9375 75.3125 C10.50791016 73.82169922 10.50791016 73.82169922 11.08984375 72.30078125 C11.39019531 71.54152344 11.69054688 70.78226562 12 70 C9.9981724 72.0018276 9.09531768 75.02515486 7.9375 77.5625 C7.11572266 79.35880859 7.11572266 79.35880859 6.27734375 81.19140625 C5.85582031 82.11824219 5.43429688 83.04507813 5 84 C0.40227575 83.15478042 -1.77263328 80.4501519 -4.6875 77 C-5.18499756 76.41637695 -5.68249512 75.83275391 -6.19506836 75.23144531 C-10.02846435 70.48998557 -11.10280341 67.16820488 -11 61 C-11.66 60.67 -12.32 60.34 -13 60 C-13.495 62.475 -13.495 62.475 -14 65 C-14.99 65 -15.98 65 -17 65 C-22.4771715 55.04150637 -23.56942852 44.28434055 -21.453125 33.11328125 C-17.77984029 21.52164223 -8.55199871 8.55199871 0 0 Z " fill="#950B0A" transform="translate(41,18)"/>
<path d="M0 0 C-12.21525735 12.38976103 -26.61046179 20.243443 -44.36352539 20.51879883 C-45.46043701 20.51259521 -46.55734863 20.5063916 -47.6875 20.5 C-49.4034436 20.49359497 -49.4034436 20.49359497 -51.15405273 20.48706055 C-63.90578126 20.23150222 -74.18696324 16.88635132 -85 10 C-85 9.34 -85 8.68 -85 8 C-85.928125 7.566875 -85.928125 7.566875 -86.875 7.125 C-89 6 -89 6 -91 4 C-89.69693153 3.99453156 -89.69693153 3.99453156 -88.36753845 3.98895264 C-80.11623253 3.95083306 -71.86531228 3.8937132 -63.61427975 3.81609726 C-59.37394265 3.77685658 -55.13380594 3.74455496 -50.89331055 3.72900391 C-46.78869473 3.71368093 -42.68463077 3.67896595 -38.58026314 3.63169098 C-37.02691044 3.61703625 -35.47347889 3.60896831 -33.9200573 3.60811615 C-24.40602315 3.59766379 -16.1629795 2.63931512 -7.06666565 -0.24407959 C-4.12151327 -0.97004748 -2.77466304 -1.08456198 0 0 Z " fill="#971110" transform="translate(112,108)"/>
<path d="M0 0 C20.79 0 41.58 0 63 0 C63 0.33 63 0.66 63 1 C52.77 1 42.54 1 32 1 C32 1.66 32 2.32 32 3 C30.20703125 4.65625 30.20703125 4.65625 27.8125 6.5 C27.03519531 7.1084375 26.25789063 7.716875 25.45703125 8.34375 C22.89757666 10.06904212 21.01568635 11.30057877 18 12 C14.88671875 10.8828125 14.88671875 10.8828125 11.6875 9.125 C10.61886719 8.55007812 9.55023438 7.97515625 8.44921875 7.3828125 C7.64097656 6.92648438 6.83273438 6.47015625 6 6 C6 5.34 6 4.68 6 4 C5.38125 3.71125 4.7625 3.4225 4.125 3.125 C2 2 2 2 0 0 Z " fill="#940808" transform="translate(21,112)"/>
<path d="M0 0 C5.44734728 0.22994625 8.31566514 2.51801915 12.0625 6.1875 C12.56587891 6.65736328 13.06925781 7.12722656 13.58789062 7.61132812 C17.01489439 10.86099664 20.03419355 14.32675348 23 18 C17.921875 21.3203125 17.921875 21.3203125 16 22 C11.18043884 20.10211608 8.15894919 16.32414263 4.6875 12.625 C4.02943359 11.95210937 3.37136719 11.27921875 2.69335938 10.5859375 C2.07654297 9.93109375 1.45972656 9.27625 0.82421875 8.6015625 C0.25791748 8.00682129 -0.30838379 7.41208008 -0.8918457 6.79931641 C-2 5 -2 5 -1.73901367 2.83740234 C-1 1 -1 1 0 0 Z " fill="#96100F" transform="translate(97,65)"/>
<path d="M0 0 C-2.68008355 2.68008355 -5.02284459 2.98400032 -8.6875 3.9375 C-9.68148804 4.19635986 -9.68148804 4.19635986 -10.69555664 4.46044922 C-16.64169478 5.97661276 -22.63039794 7.18151295 -28.65625 8.33984375 C-32.48097572 9.09495899 -36.23285311 10.00055287 -40 11 C-40 9 -40 9 -38.359375 6.8359375 C-27.65696519 -3.25765259 -13.81776358 -0.82923591 0 0 Z " fill="#EEDBDD" transform="translate(81,114)"/>
<path d="M0 0 C0 4.72992959 -3.05890282 8.21813281 -5.53710938 12.11132812 C-10.71870383 20.44400604 -13.44977585 28.04748469 -12 38 C-10.93807278 40.59582208 -9.7236762 42.81591418 -8.19140625 45.16015625 C-7 47 -7 47 -6 50 C-6.9375 53.1875 -6.9375 53.1875 -8 56 C-8.66 56 -9.32 56 -10 56 C-15.4771715 46.04150637 -16.56942852 35.28434055 -14.453125 24.11328125 C-11.85200791 15.90503912 -6.13359848 6.13359848 0 0 Z " fill="#E8D1D3" transform="translate(34,27)"/>
<path d="M0 0 C3.57766646 1.19255549 4.2041827 2.31166431 6.375 5.3125 C10.09961996 10.27287713 10.09961996 10.27287713 15 14 C18.10304831 13.9261179 19.464478 13.4616569 21.8125 11.4375 C22.204375 10.963125 22.59625 10.48875 23 10 C21.75023244 13.65316671 21.32901247 14.78065836 18 17 C17.20207031 17.07089844 16.40414062 17.14179687 15.58203125 17.21484375 C11.73730202 18.38396716 10.53641779 21.23304462 8.6875 24.5625 C8.32849609 25.17802734 7.96949219 25.79355469 7.59960938 26.42773438 C6.71841217 27.94339357 5.85720523 29.47064376 5 31 C4.67 30.34 4.34 29.68 4 29 C4.89512866 26.49903751 5.99510649 24.12267989 7.08984375 21.703125 C8.15831484 18.52981172 8.38496089 16.33056055 8 13 C6.52455748 10.17158114 6.52455748 10.17158114 4.5 7.625 C3.8503125 6.75101563 3.200625 5.87703125 2.53125 4.9765625 C2.0259375 4.32429688 1.520625 3.67203125 1 3 C-0.175625 4.2065625 -0.175625 4.2065625 -1.375 5.4375 C-4 8 -4 8 -6 9 C-4.68775452 5.06326356 -3.08089673 2.77280706 0 0 Z " fill="#E6CBCD" transform="translate(41,18)"/>
<path d="M0 0 C4.68191549 0.45738073 6.63104174 2.19110394 9.8125 5.5625 C10.60269531 6.38878906 11.39289063 7.21507812 12.20703125 8.06640625 C12.79871094 8.70449219 13.39039062 9.34257813 14 10 C13.67 10.66 13.34 11.32 13 12 C12.01 12 11.02 12 10 12 C8.63823078 10.35648543 7.31037934 8.68477344 6 7 C4.93674371 6.08042699 3.85274965 5.1843209 2.75 4.3125 C1.8425 3.549375 0.935 2.78625 0 2 C0 1.34 0 0.68 0 0 Z " fill="#9A1D1D" transform="translate(80,53)"/>
<path d="M0 0 C8.11923503 0.77326048 12.95766388 5.65877408 18.375 11.25 C18.92027344 11.80429688 19.46554688 12.35859375 20.02734375 12.9296875 C21.35622977 14.28188731 22.67878548 15.6403035 24 17 C23.67 17.66 23.34 18.32 23 19 C22.20335938 18.18015625 21.40671875 17.3603125 20.5859375 16.515625 C19.51589905 15.42681394 18.44557107 14.33828737 17.375 13.25 C16.85292969 12.71117188 16.33085938 12.17234375 15.79296875 11.6171875 C11.12418569 6.89076514 6.33626004 3.23632707 0 1 C0 0.67 0 0.34 0 0 Z " fill="#E2C4C6" transform="translate(96,63)"/>
<path d="M0 0 C4.59306496 1.4859916 7.43569245 3.85014682 11 7 C10.01 7.99 9.02 8.98 8 10 C6.66370254 8.52351062 5.33103329 7.0437367 4 5.5625 C3.2575 4.73878906 2.515 3.91507812 1.75 3.06640625 C0 1 0 1 0 0 Z " fill="#E1C2C3" transform="translate(6,83)"/>
<path d="M0 0 C1.0169313 2.65498232 1.13022151 3.69155375 0.00390625 6.359375 C-0.47175781 7.14828125 -0.94742188 7.9371875 -1.4375 8.75 C-2.14712891 9.94882813 -2.14712891 9.94882813 -2.87109375 11.171875 C-3.24363281 11.77515625 -3.61617187 12.3784375 -4 13 C-5.14271055 9.57186835 -4.82699932 8.69088901 -3.6875 5.375 C-3.42324219 4.57835938 -3.15898438 3.78171875 -2.88671875 2.9609375 C-2 1 -2 1 0 0 Z " fill="#981617" transform="translate(54,89)"/>
<path d="M0 0 C1.32 0.66 2.64 1.32 4 2 C2.9171875 2.804375 2.9171875 2.804375 1.8125 3.625 C-1.247842 6.2092888 -3.51220011 8.87248014 -6 12 C-6.66 11.67 -7.32 11.34 -8 11 C-5.36 7.37 -2.72 3.74 0 0 Z " fill="#991818" transform="translate(80,64)"/>
<path d="M0 0 C2.375 0.3125 2.375 0.3125 5 1 C5.66 1.99 6.32 2.98 7 4 C6.34 4 5.68 4 5 4 C4.67 4.66 4.34 5.32 4 6 C2.62437146 4.71034824 1.29233607 3.37310707 0 2 C0 1.34 0 0.68 0 0 Z " fill="#A13031" transform="translate(80,53)"/>
<path d="M0 0 C0.99 0.33 1.98 0.66 3 1 C2.34 1.66 1.68 2.32 1 3 C0.175 3.845625 -0.65 4.69125 -1.5 5.5625 C-4 8 -4 8 -6 9 C-4.68775452 5.06326356 -3.08089673 2.77280706 0 0 Z " fill="#C78F91" transform="translate(41,18)"/>
<path d="M0 0 C4.3890815 0.51035831 7.33708062 1.52214277 11 4 C10.34 4.66 9.68 5.32 9 6 C8.443125 5.54625 7.88625 5.0925 7.3125 4.625 C4.94686561 2.96266232 2.70984342 1.97855457 0 1 C0 0.67 0 0.34 0 0 Z " fill="#DCB9BA" transform="translate(96,63)"/>
<path d="M0 0 C2.76223278 2.76223278 2.57856291 5.20706617 3 9 C2.34 9 1.68 9 1 9 C0.67 6.03 0.34 3.06 0 0 Z " fill="#9C2021" transform="translate(18,67)"/>
<path d="M0 0 C0.66 0.99 1.32 1.98 2 3 C0.68 5.31 -0.64 7.62 -2 10 C-3 8 -3 8 -2.44140625 6.0546875 C-2.15136719 5.33539063 -1.86132812 4.61609375 -1.5625 3.875 C-1.27503906 3.15054688 -0.98757812 2.42609375 -0.69140625 1.6796875 C-0.46324219 1.12539063 -0.23507813 0.57109375 0 0 Z " fill="#CD9A9C" transform="translate(48,39)"/>
</svg>
